<svg xmlns="http://www.w3.org/2000/svg" version="1.1" width="500px" height="500px" style="shape-rendering:geometricPrecision; text-rendering:geometricPrecision; image-rendering:optimizeQuality; fill-rule:evenodd; clip-rule:evenodd" xmlns:xlink="http://www.w3.org/1999/xlink">
<g><path style="opacity:1" fill="#eff1f3" d="M 412.5,218.5 C 412.671,233.849 412.337,249.183 411.5,264.5C 401.608,322.221 370.275,363.721 317.5,389C 295.462,398.457 272.629,405.29 249,409.5C 217.632,403.601 188.132,392.768 160.5,377C 118.584,349.034 94.5836,309.867 88.5,259.5C 87.1888,243.835 87.1888,228.168 88.5,212.5C 89.9161,200.502 92.7494,188.835 97,177.5C 104.162,159.508 111.995,141.841 120.5,124.5C 142.663,111.418 165.663,99.9183 189.5,90C 209.097,83.2675 229.097,78.1008 249.5,74.5C 282.886,79.8621 314.553,90.3621 344.5,106C 355.67,112.753 367.004,119.253 378.5,125.5C 391.753,149.339 402.253,174.339 410,200.5C 411.378,206.432 412.211,212.432 412.5,218.5 Z"/></g>
<g><path style="opacity:1" fill="#677987" d="M 300.5,94.5 C 299.262,94.81 299.262,95.31 300.5,96C 302.421,96.3603 304.088,97.1936 305.5,98.5C 304.624,99.2508 303.624,99.7508 302.5,100C 303.696,100.654 303.696,101.154 302.5,101.5C 301.575,100.359 300.741,100.359 300,101.5C 299.632,100.09 298.799,99.09 297.5,98.5C 294.921,99.7061 292.421,101.039 290,102.5C 288.204,101.233 286.371,101.233 284.5,102.5C 284.167,101.833 283.833,101.167 283.5,100.5C 281.598,102.151 279.598,102.484 277.5,101.5C 275.311,103.499 272.978,103.333 270.5,101C 266.5,100.667 262.5,100.333 258.5,100C 258,99.5 257.5,99 257,98.5C 254.903,99.991 252.57,100.991 250,101.5C 248.149,99.2189 246.482,99.2189 245,101.5C 244.383,100.551 244.549,99.7175 245.5,99C 243.385,98.4427 241.385,97.6094 239.5,96.5C 238.808,97.0253 238.308,97.6919 238,98.5C 237.326,97.4216 236.326,96.7549 235,96.5C 230.881,97.4477 226.547,97.4477 222,96.5C 219.12,98.7143 216.12,98.7143 213,96.5C 212.632,97.91 211.799,98.91 210.5,99.5C 207.191,97.8167 204.191,97.4834 201.5,98.5C 198.788,96.7397 195.788,96.073 192.5,96.5C 210.75,89.5585 229.584,84.2252 249,80.5C 266.685,83.7103 283.851,88.377 300.5,94.5 Z"/></g>
<g><path style="opacity:1" fill="#617381" d="M 300.5,94.5 C 318.901,100.401 336.234,108.401 352.5,118.5C 350.771,119.117 349.271,120.117 348,121.5C 347.667,120.833 347.333,120.167 347,119.5C 345.05,119.751 342.884,120.418 340.5,121.5C 340.089,120.738 339.923,119.738 340,118.5C 338.667,119.167 337.667,120.167 337,121.5C 336.667,120.833 336.333,120.167 336,119.5C 335.316,120.784 335.483,121.951 336.5,123C 332.651,126.52 331.484,125.686 333,120.5C 332.586,120.957 332.086,121.291 331.5,121.5C 332.108,123.684 331.441,125.684 329.5,127.5C 332.012,128.712 332.679,131.045 331.5,134.5C 312.481,126.989 293.481,119.489 274.5,112C 265.707,108.958 256.874,106.124 248,103.5C 222.469,111.849 197.303,121.182 172.5,131.5C 172.025,128.115 173.358,125.782 176.5,124.5C 175.817,121.539 174.984,121.205 174,123.5C 173.849,120.44 172.515,118.107 170,116.5C 169.333,119.167 168.667,119.167 168,116.5C 164.773,116.953 161.773,117.953 159,119.5C 158.085,118.672 157.419,117.672 157,116.5C 156.026,118.878 155.359,118.544 155,115.5C 153.644,116.38 152.144,116.714 150.5,116.5C 163.408,107.714 177.408,101.048 192.5,96.5C 195.788,96.073 198.788,96.7397 201.5,98.5C 204.191,97.4834 207.191,97.8167 210.5,99.5C 211.799,98.91 212.632,97.91 213,96.5C 216.12,98.7143 219.12,98.7143 222,96.5C 226.547,97.4477 230.881,97.4477 235,96.5C 236.326,96.7549 237.326,97.4216 238,98.5C 238.308,97.6919 238.808,97.0253 239.5,96.5C 241.385,97.6094 243.385,98.4427 245.5,99C 244.549,99.7175 244.383,100.551 245,101.5C 246.482,99.2189 248.149,99.2189 250,101.5C 252.57,100.991 254.903,99.991 257,98.5C 257.5,99 258,99.5 258.5,100C 262.5,100.333 266.5,100.667 270.5,101C 272.978,103.333 275.311,103.499 277.5,101.5C 279.598,102.484 281.598,102.151 283.5,100.5C 283.833,101.167 284.167,101.833 284.5,102.5C 286.371,101.233 288.204,101.233 290,102.5C 292.421,101.039 294.921,99.7061 297.5,98.5C 298.799,99.09 299.632,100.09 300,101.5C 300.741,100.359 301.575,100.359 302.5,101.5C 303.696,101.154 303.696,100.654 302.5,100C 303.624,99.7508 304.624,99.2508 305.5,98.5C 304.088,97.1936 302.421,96.3603 300.5,96C 299.262,95.31 299.262,94.81 300.5,94.5 Z"/></g>
<g><path style="opacity:1" fill="#f9fafb" d="M 331.5,134.5 C 339.25,137.874 346.916,141.541 354.5,145.5C 360.98,156.127 366.646,167.127 371.5,178.5C 384.003,206.807 387.003,236.14 380.5,266.5C 379.293,270.787 378.293,275.12 377.5,279.5C 370.271,300.62 358.937,319.286 343.5,335.5C 334.172,343.822 324.172,351.156 313.5,357.5C 292.385,367.093 270.718,375.093 248.5,381.5C 246.829,381.332 245.496,380.665 244.5,379.5C 239.5,377.057 234.166,375.39 228.5,374.5C 217.951,371.428 207.618,367.762 197.5,363.5C 184.077,357.282 171.744,349.282 160.5,339.5C 135.686,314.538 121.02,284.538 116.5,249.5C 116.5,239.167 116.5,228.833 116.5,218.5C 118.643,208.151 121.31,197.818 124.5,187.5C 128.74,177.975 132.906,168.309 137,158.5C 139.091,153.306 141.924,148.639 145.5,144.5C 154.128,139.424 163.128,135.09 172.5,131.5C 197.303,121.182 222.469,111.849 248,103.5C 256.874,106.124 265.707,108.958 274.5,112C 293.481,119.489 312.481,126.989 331.5,134.5 Z"/></g>
<g><path style="opacity:1" fill="#576a79" d="M 172.5,131.5 C 163.128,135.09 154.128,139.424 145.5,144.5C 139.229,139.356 132.562,134.69 125.5,130.5C 133.341,125.077 141.674,120.41 150.5,116.5C 152.144,116.714 153.644,116.38 155,115.5C 155.359,118.544 156.026,118.878 157,116.5C 157.419,117.672 158.085,118.672 159,119.5C 161.773,117.953 164.773,116.953 168,116.5C 168.667,119.167 169.333,119.167 170,116.5C 172.515,118.107 173.849,120.44 174,123.5C 174.984,121.205 175.817,121.539 176.5,124.5C 173.358,125.782 172.025,128.115 172.5,131.5 Z"/></g>
<g><path style="opacity:1" fill="#5a6c7b" d="M 352.5,118.5 C 360.199,122.344 367.532,126.678 374.5,131.5C 373.07,131.421 371.736,131.754 370.5,132.5C 365.123,136.887 359.79,141.22 354.5,145.5C 346.916,141.541 339.25,137.874 331.5,134.5C 332.679,131.045 332.012,128.712 329.5,127.5C 331.441,125.684 332.108,123.684 331.5,121.5C 332.086,121.291 332.586,120.957 333,120.5C 331.484,125.686 332.651,126.52 336.5,123C 335.483,121.951 335.316,120.784 336,119.5C 336.333,120.167 336.667,120.833 337,121.5C 337.667,120.167 338.667,119.167 340,118.5C 339.923,119.738 340.089,120.738 340.5,121.5C 342.884,120.418 345.05,119.751 347,119.5C 347.333,120.167 347.667,120.833 348,121.5C 349.271,120.117 350.771,119.117 352.5,118.5 Z"/></g>
<g><path style="opacity:1" fill="#8897a2" d="M 302.5,137.5 C 301.733,138.172 301.066,139.005 300.5,140C 298.426,139.773 296.426,139.939 294.5,140.5C 276.58,138.035 258.58,134.868 240.5,131C 238.038,128.464 235.038,126.964 231.5,126.5C 227.981,126.383 224.314,126.717 220.5,127.5C 229.705,123.371 239.205,119.704 249,116.5C 267.051,123.234 284.885,130.234 302.5,137.5 Z"/></g>
<g><path style="opacity:1" fill="#788894" d="M 302.5,137.5 C 312.405,141.129 322.071,145.129 331.5,149.5C 328.214,149.929 325.047,149.929 322,149.5C 319.876,150.227 317.709,150.894 315.5,151.5C 305.259,150.689 295.093,149.355 285,147.5C 282.394,147.478 279.727,147.812 277,148.5C 276.308,147.975 275.808,147.308 275.5,146.5C 257.269,144.231 239.436,140.231 222,134.5C 220.657,135.214 219.324,134.88 218,133.5C 216.984,134.634 216.317,134.301 216,132.5C 214.951,133.517 213.784,133.684 212.5,133C 213.167,132.667 213.833,132.333 214.5,132C 213.207,131.51 211.873,131.343 210.5,131.5C 213.518,129.6 216.851,128.267 220.5,127.5C 224.314,126.717 227.981,126.383 231.5,126.5C 235.038,126.964 238.038,128.464 240.5,131C 258.58,134.868 276.58,138.035 294.5,140.5C 296.426,139.939 298.426,139.773 300.5,140C 301.066,139.005 301.733,138.172 302.5,137.5 Z"/></g>
<g><path style="opacity:1" fill="#6f808d" d="M 210.5,131.5 C 211.873,131.343 213.207,131.51 214.5,132C 213.833,132.333 213.167,132.667 212.5,133C 213.784,133.684 214.951,133.517 216,132.5C 216.317,134.301 216.984,134.634 218,133.5C 219.324,134.88 220.657,135.214 222,134.5C 239.436,140.231 257.269,144.231 275.5,146.5C 275.808,147.308 276.308,147.975 277,148.5C 279.727,147.812 282.394,147.478 285,147.5C 295.093,149.355 305.259,150.689 315.5,151.5C 317.709,150.894 319.876,150.227 322,149.5C 325.047,149.929 328.214,149.929 331.5,149.5C 334.912,150.075 337.912,151.408 340.5,153.5C 337.312,153.512 334.478,154.512 332,156.5C 329.973,155.268 328.64,155.602 328,157.5C 319.044,156.081 310.044,155.081 301,154.5C 300.586,154.957 300.086,155.291 299.5,155.5C 284.882,152.792 269.882,150.625 254.5,149C 243.703,146.561 233.869,143.728 225,140.5C 224.586,140.957 224.086,141.291 223.5,141.5C 218.918,140.029 214.251,138.862 209.5,138C 209.833,137.667 210.167,137.333 210.5,137C 208.697,136.363 207.364,135.197 206.5,133.5C 205.583,134.127 204.583,134.461 203.5,134.5C 205.32,132.552 207.654,131.552 210.5,131.5 Z"/></g>
<g><path style="opacity:1" fill="#4a5e6e" d="M 374.5,131.5 C 377.258,134.678 379.258,138.345 380.5,142.5C 379.312,141.952 378.145,141.619 377,141.5C 373.916,143.66 373.75,144.994 376.5,145.5C 374.178,146.936 373.511,148.77 374.5,151C 373.833,152.333 372.833,153.333 371.5,154C 371.065,156.398 371.731,158.731 373.5,161C 372.278,164.561 371.278,168.561 370.5,173C 370.943,174.825 371.277,176.658 371.5,178.5C 366.646,167.127 360.98,156.127 354.5,145.5C 359.79,141.22 365.123,136.887 370.5,132.5C 371.736,131.754 373.07,131.421 374.5,131.5 Z"/></g>
<g><path style="opacity:1" fill="#455867" d="M 125.5,130.5 C 132.562,134.69 139.229,139.356 145.5,144.5C 141.924,148.639 139.091,153.306 137,158.5C 132.906,168.309 128.74,177.975 124.5,187.5C 123.972,186.279 123.305,185.113 122.5,184C 123.833,182.333 123.833,180.667 122.5,179C 124.792,177.803 125.125,176.137 123.5,174C 123.759,172.739 124.426,171.739 125.5,171C 125.5,168.667 125.5,166.333 125.5,164C 124.415,161.828 123.081,159.828 121.5,158C 122.167,157.667 122.833,157.333 123.5,157C 121.009,156.591 119.009,155.424 117.5,153.5C 116.158,154.902 115.324,154.569 115,152.5C 114.617,153.056 114.117,153.389 113.5,153.5C 116.214,145.069 120.214,137.403 125.5,130.5 Z"/></g>
<g><path style="opacity:1" fill="#657785" d="M 340.5,153.5 C 342.716,154.203 344.549,155.536 346,157.5C 347.527,160.553 349.027,163.553 350.5,166.5C 348.709,165.517 347.209,164.184 346,162.5C 345.097,163.701 343.931,164.535 342.5,165C 338.961,165.282 335.461,165.782 332,166.5C 325.799,166.095 319.465,165.429 313,164.5C 307.914,165.155 302.914,164.489 298,162.5C 297,162.833 296,163.167 295,163.5C 292.34,162.166 289.506,161.332 286.5,161C 285.809,159.933 285.309,158.766 285,157.5C 284,158.167 283,158.833 282,159.5C 278.906,158.401 275.74,157.901 272.5,158C 273.551,159.385 274.884,160.385 276.5,161C 275.263,161.232 274.263,161.732 273.5,162.5C 264.177,159.002 254.511,157.335 244.5,157.5C 247.977,156.677 251.644,156.177 255.5,156C 246.376,155.935 237.376,154.935 228.5,153C 221.383,150.448 214.216,147.948 207,145.5C 206.667,145.833 206.333,146.167 206,146.5C 204.921,144.606 203.587,144.273 202,145.5C 200.609,143.285 198.943,143.285 197,145.5C 194.285,144.91 191.451,144.91 188.5,145.5C 186.833,145.167 185.167,144.833 183.5,144.5C 184.025,143.808 184.692,143.308 185.5,143C 184.207,142.51 182.873,142.343 181.5,142.5C 188.678,139.534 196.012,136.867 203.5,134.5C 204.583,134.461 205.583,134.127 206.5,133.5C 207.364,135.197 208.697,136.363 210.5,137C 210.167,137.333 209.833,137.667 209.5,138C 214.251,138.862 218.918,140.029 223.5,141.5C 224.086,141.291 224.586,140.957 225,140.5C 233.869,143.728 243.703,146.561 254.5,149C 269.882,150.625 284.882,152.792 299.5,155.5C 300.086,155.291 300.586,154.957 301,154.5C 310.044,155.081 319.044,156.081 328,157.5C 328.64,155.602 329.973,155.268 332,156.5C 334.478,154.512 337.312,153.512 340.5,153.5 Z"/></g>
<g><path style="opacity:1" fill="#596b7b" d="M 181.5,142.5 C 182.873,142.343 184.207,142.51 185.5,143C 184.692,143.308 184.025,143.808 183.5,144.5C 185.167,144.833 186.833,145.167 188.5,145.5C 191.451,144.91 194.285,144.91 197,145.5C 198.943,143.285 200.609,143.285 202,145.5C 203.587,144.273 204.921,144.606 206,146.5C 206.333,146.167 206.667,145.833 207,145.5C 214.216,147.948 221.383,150.448 228.5,153C 237.376,154.935 246.376,155.935 255.5,156C 251.644,156.177 247.977,156.677 244.5,157.5C 235.643,158.008 227.31,160.342 219.5,164.5C 219.5,162.5 219.5,160.5 219.5,158.5C 217.738,158.357 216.071,158.691 214.5,159.5C 208.133,156.994 201.799,155.328 195.5,154.5C 189.535,152.374 183.535,150.374 177.5,148.5C 176.914,148.709 176.414,149.043 176,149.5C 175.751,148.376 175.251,147.376 174.5,146.5C 171.111,148.699 167.444,150.032 163.5,150.5C 169.173,147.269 175.173,144.602 181.5,142.5 Z"/></g>
<g><path style="opacity:1" fill="#4a5d6e" d="M 219.5,164.5 C 215.228,166.774 211.228,169.441 207.5,172.5C 207.479,169.465 206.146,167.132 203.5,165.5C 196.079,162.339 188.412,159.673 180.5,157.5C 176.228,158.611 172.062,157.611 168,154.5C 166.055,155.692 164.055,155.692 162,154.5C 161.05,155.022 160.216,155.689 159.5,156.5C 158.304,156.154 158.304,155.654 159.5,155C 158.906,154.536 158.239,154.369 157.5,154.5C 159.147,152.674 161.147,151.34 163.5,150.5C 167.444,150.032 171.111,148.699 174.5,146.5C 175.251,147.376 175.751,148.376 176,149.5C 176.414,149.043 176.914,148.709 177.5,148.5C 183.535,150.374 189.535,152.374 195.5,154.5C 201.799,155.328 208.133,156.994 214.5,159.5C 216.071,158.691 217.738,158.357 219.5,158.5C 219.5,160.5 219.5,162.5 219.5,164.5 Z"/></g>
<g><path style="opacity:1" fill="#3d5162" d="M 124.5,187.5 C 121.31,197.818 118.643,208.151 116.5,218.5C 116.005,216.518 115.505,214.518 115,212.5C 114.333,213.167 113.667,213.833 113,214.5C 112.28,212.888 112.446,211.388 113.5,210C 112.833,209.333 112.167,208.667 111.5,208C 112.038,206.101 112.705,203.934 113.5,201.5C 112.448,201.649 111.448,201.483 110.5,201C 111.516,200.481 112.182,199.647 112.5,198.5C 111.677,193.755 111.677,189.088 112.5,184.5C 109.491,181.433 108.824,178.266 110.5,175C 108.655,173.872 106.655,173.372 104.5,173.5C 106.967,166.568 109.967,159.902 113.5,153.5C 114.117,153.389 114.617,153.056 115,152.5C 115.324,154.569 116.158,154.902 117.5,153.5C 119.009,155.424 121.009,156.591 123.5,157C 122.833,157.333 122.167,157.667 121.5,158C 123.081,159.828 124.415,161.828 125.5,164C 125.5,166.333 125.5,168.667 125.5,171C 124.426,171.739 123.759,172.739 123.5,174C 125.125,176.137 124.792,177.803 122.5,179C 123.833,180.667 123.833,182.333 122.5,184C 123.305,185.113 123.972,186.279 124.5,187.5 Z"/></g>
<g><path style="opacity:1" fill="#435667" d="M 157.5,154.5 C 158.239,154.369 158.906,154.536 159.5,155C 158.304,155.654 158.304,156.154 159.5,156.5C 160.216,155.689 161.05,155.022 162,154.5C 164.055,155.692 166.055,155.692 168,154.5C 172.062,157.611 176.228,158.611 180.5,157.5C 188.412,159.673 196.079,162.339 203.5,165.5C 206.146,167.132 207.479,169.465 207.5,172.5C 205.5,175.167 203.167,177.5 200.5,179.5C 201.052,177.669 201.052,176.003 200.5,174.5C 202.836,173.406 202.836,172.073 200.5,170.5C 199.833,170.833 199.167,171.167 198.5,171.5C 196.78,170.045 194.78,169.212 192.5,169C 189.242,168.788 186.076,168.288 183,167.5C 182.667,167.833 182.333,168.167 182,168.5C 179,166.827 176,166.16 173,166.5C 170.572,165.355 168.238,164.022 166,162.5C 163,163.833 160,163.833 157,162.5C 154.775,163.096 152.608,163.763 150.5,164.5C 151.851,160.458 154.185,157.125 157.5,154.5 Z"/></g>
<g><path style="opacity:1" fill="#f9fafb" d="M 244.5,157.5 C 254.511,157.335 264.177,159.002 273.5,162.5C 279.66,165.077 285.327,168.41 290.5,172.5C 293.167,175.833 296.167,178.833 299.5,181.5C 302.199,185.19 304.865,188.857 307.5,192.5C 308.462,196.395 309.796,200.061 311.5,203.5C 311.5,203.833 311.5,204.167 311.5,204.5C 311.41,207.152 312.076,209.485 313.5,211.5C 314.49,217.31 314.823,223.31 314.5,229.5C 313.19,244.101 308.523,257.434 300.5,269.5C 279.011,294.767 252.678,301.6 221.5,290C 208.976,282.642 198.976,272.808 191.5,260.5C 189.957,258.072 188.957,255.406 188.5,252.5C 188.204,250.597 187.537,248.93 186.5,247.5C 186.59,244.848 185.924,242.515 184.5,240.5C 184.037,237.518 183.704,234.518 183.5,231.5C 183.5,226.167 183.5,220.833 183.5,215.5C 185.169,208.842 187.169,202.176 189.5,195.5C 192.159,191.172 194.826,186.838 197.5,182.5C 198.833,181.833 199.833,180.833 200.5,179.5C 203.167,177.5 205.5,175.167 207.5,172.5C 211.228,169.441 215.228,166.774 219.5,164.5C 227.31,160.342 235.643,158.008 244.5,157.5 Z"/></g>
<g><path style="opacity:1" fill="#3e5364" d="M 380.5,142.5 C 385.564,152.706 390.23,163.04 394.5,173.5C 392.806,172.314 391.139,172.481 389.5,174C 389.957,174.414 390.291,174.914 390.5,175.5C 389.833,179.833 389.167,184.167 388.5,188.5C 389.574,193.629 389.574,198.796 388.5,204C 389.167,204.333 389.833,204.667 390.5,205C 389.707,206.085 389.04,207.252 388.5,208.5C 389.795,211.366 389.795,214.199 388.5,217C 390.235,218.182 391.235,219.849 391.5,222C 391.109,226.849 390.442,231.849 389.5,237C 389.833,237.333 390.167,237.667 390.5,238C 389.872,240.8 388.872,243.467 387.5,246C 388.167,246.333 388.833,246.667 389.5,247C 388.036,252.573 386.203,258.073 384,263.5C 382.961,264.71 381.794,265.71 380.5,266.5C 387.003,236.14 384.003,206.807 371.5,178.5C 371.277,176.658 370.943,174.825 370.5,173C 371.278,168.561 372.278,164.561 373.5,161C 371.731,158.731 371.065,156.398 371.5,154C 372.833,153.333 373.833,152.333 374.5,151C 373.511,148.77 374.178,146.936 376.5,145.5C 373.75,144.994 373.916,143.66 377,141.5C 378.145,141.619 379.312,141.952 380.5,142.5 Z"/></g>
<g><path style="opacity:1" fill="#3a4e60" d="M 200.5,179.5 C 199.833,180.833 198.833,181.833 197.5,182.5C 196.653,180.156 194.986,178.656 192.5,178C 188.167,177.667 183.833,177.333 179.5,177C 176.993,176.907 174.826,176.074 173,174.5C 171.274,175.576 169.441,175.743 167.5,175C 165.056,174.196 163.222,172.696 162,170.5C 161.586,170.957 161.086,171.291 160.5,171.5C 157.961,170.885 155.461,170.218 153,169.5C 151.333,170.5 150,171.833 149,173.5C 148.667,173.167 148.333,172.833 148,172.5C 147.794,174.936 146.627,176.602 144.5,177.5C 146.592,173.116 148.592,168.783 150.5,164.5C 152.608,163.763 154.775,163.096 157,162.5C 160,163.833 163,163.833 166,162.5C 168.238,164.022 170.572,165.355 173,166.5C 176,166.16 179,166.827 182,168.5C 182.333,168.167 182.667,167.833 183,167.5C 186.076,168.288 189.242,168.788 192.5,169C 194.78,169.212 196.78,170.045 198.5,171.5C 199.167,171.167 199.833,170.833 200.5,170.5C 202.836,172.073 202.836,173.406 200.5,174.5C 201.052,176.003 201.052,177.669 200.5,179.5 Z"/></g>
<g><path style="opacity:1" fill="#5a6d7c" d="M 350.5,166.5 C 351.773,168.713 352.773,171.046 353.5,173.5C 349.964,173.345 346.464,173.345 343,173.5C 340.43,172.584 337.763,171.918 335,171.5C 329.304,172.48 323.637,172.147 318,170.5C 313.891,170.797 309.891,170.797 306,170.5C 304,173.167 302,173.167 300,170.5C 297.346,170.525 294.679,170.525 292,170.5C 290.97,170.836 290.47,171.503 290.5,172.5C 285.327,168.41 279.66,165.077 273.5,162.5C 274.263,161.732 275.263,161.232 276.5,161C 274.884,160.385 273.551,159.385 272.5,158C 275.74,157.901 278.906,158.401 282,159.5C 283,158.833 284,158.167 285,157.5C 285.309,158.766 285.809,159.933 286.5,161C 289.506,161.332 292.34,162.166 295,163.5C 296,163.167 297,162.833 298,162.5C 302.914,164.489 307.914,165.155 313,164.5C 319.465,165.429 325.799,166.095 332,166.5C 335.461,165.782 338.961,165.282 342.5,165C 343.931,164.535 345.097,163.701 346,162.5C 347.209,164.184 348.709,165.517 350.5,166.5 Z"/></g>
<g><path style="opacity:1" fill="#516373" d="M 353.5,173.5 C 353.833,174.833 354.167,176.167 354.5,177.5C 350.952,180.868 346.952,181.368 342.5,179C 332.167,178.667 321.833,178.333 311.5,178C 310.234,177.691 309.067,177.191 308,176.5C 305.891,176.566 303.725,176.899 301.5,177.5C 299.689,175.838 298.022,175.672 296.5,177C 298.087,177.862 299.754,178.529 301.5,179C 300.619,179.708 299.953,180.542 299.5,181.5C 296.167,178.833 293.167,175.833 290.5,172.5C 290.47,171.503 290.97,170.836 292,170.5C 294.679,170.525 297.346,170.525 300,170.5C 302,173.167 304,173.167 306,170.5C 309.891,170.797 313.891,170.797 318,170.5C 323.637,172.147 329.304,172.48 335,171.5C 337.763,171.918 340.43,172.584 343,173.5C 346.464,173.345 349.964,173.345 353.5,173.5 Z"/></g>
<g><path style="opacity:1" fill="#34495a" d="M 104.5,173.5 C 106.655,173.372 108.655,173.872 110.5,175C 108.824,178.266 109.491,181.433 112.5,184.5C 111.677,189.088 111.677,193.755 112.5,198.5C 112.182,199.647 111.516,200.481 110.5,201C 111.448,201.483 112.448,201.649 113.5,201.5C 112.705,203.934 112.038,206.101 111.5,208C 112.167,208.667 112.833,209.333 113.5,210C 112.446,211.388 112.28,212.888 113,214.5C 113.667,213.833 114.333,213.167 115,212.5C 115.505,214.518 116.005,216.518 116.5,218.5C 116.5,228.833 116.5,239.167 116.5,249.5C 116.505,253.534 116.838,257.534 117.5,261.5C 116.448,261.351 115.448,261.517 114.5,262C 114.937,264.449 114.937,266.783 114.5,269C 115.3,273.08 115.8,277.247 116,281.5C 116.333,281.167 116.667,280.833 117,280.5C 117.314,282.869 118.148,285.036 119.5,287C 118.795,288.422 118.461,289.755 118.5,291C 119.956,293.266 120.79,295.766 121,298.5C 121.202,296.744 121.702,295.078 122.5,293.5C 122.833,294 123.167,294.5 123.5,295C 122.373,300.045 123.373,305.045 126.5,310C 126.167,310.333 125.833,310.667 125.5,311C 128.734,315.237 131.567,319.737 134,324.5C 135,324.5 136,324.5 137,324.5C 136.302,326.764 136.802,328.597 138.5,330C 138.167,330.333 137.833,330.667 137.5,331C 138.833,331.667 140.167,332.333 141.5,333C 140.339,335.721 141.006,338.054 143.5,340C 142.167,341 142.167,342 143.5,343C 141.068,344.087 141.402,344.587 144.5,344.5C 144.838,346.854 145.338,349.187 146,351.5C 146.893,350.289 147.726,350.289 148.5,351.5C 147.167,352.5 147.167,353.5 148.5,354.5C 147.406,356.836 146.073,356.836 144.5,354.5C 143.893,354.624 143.56,354.957 143.5,355.5C 127.215,341.888 115.215,325.221 107.5,305.5C 108.496,305.586 109.329,305.252 110,304.5C 110.167,303.167 110.333,301.833 110.5,300.5C 108.681,292.908 106.681,285.408 104.5,278C 104.057,276.482 104.724,275.315 106.5,274.5C 104.458,273.497 104.125,272.163 105.5,270.5C 105.023,269.522 104.357,268.689 103.5,268C 104.982,265.408 104.648,263.075 102.5,261C 101.87,258.184 102.536,255.518 104.5,253C 104.025,248.558 103.025,244.225 101.5,240C 101.905,239.055 102.572,238.388 103.5,238C 102.833,237.667 102.167,237.333 101.5,237C 102.244,234.149 102.244,231.483 101.5,229C 100.833,228.333 100.167,227.667 99.5,227C 101.101,223.404 100.768,220.071 98.5,217C 102.283,214.179 102.283,211.512 98.5,209C 98.6107,207.278 99.1107,207.112 100,208.5C 100.667,206.5 100.667,204.5 100,202.5C 99.51,203.793 99.3433,205.127 99.5,206.5C 98.5,206.5 97.5,206.5 96.5,206.5C 96.0833,210.835 95.5833,215.168 95,219.5C 94.6667,219.167 94.3333,218.833 94,218.5C 93.8091,220.708 93.3091,222.708 92.5,224.5C 93.5256,206.735 97.5256,189.735 104.5,173.5 Z"/></g>
<g><path style="opacity:1" fill="#2f4356" d="M 197.5,182.5 C 194.826,186.838 192.159,191.172 189.5,195.5C 188.952,193.468 187.619,192.468 185.5,192.5C 185.649,193.552 185.483,194.552 185,195.5C 184.535,194.069 183.701,192.903 182.5,192C 179.393,192.453 176.393,192.453 173.5,192C 174.833,191.333 174.833,190.667 173.5,190C 171.833,189.667 170.167,189.333 168.5,189C 169.167,188.667 169.833,188.333 170.5,188C 167.574,187.782 164.74,187.282 162,186.5C 159.802,188.375 157.969,188.375 156.5,186.5C 154.261,188.12 152.427,187.787 151,185.5C 149.667,186.833 148.333,188.167 147,189.5C 144.299,190.528 141.799,190.528 139.5,189.5C 140.632,185.24 142.299,181.24 144.5,177.5C 146.627,176.602 147.794,174.936 148,172.5C 148.333,172.833 148.667,173.167 149,173.5C 150,171.833 151.333,170.5 153,169.5C 155.461,170.218 157.961,170.885 160.5,171.5C 161.086,171.291 161.586,170.957 162,170.5C 163.222,172.696 165.056,174.196 167.5,175C 169.441,175.743 171.274,175.576 173,174.5C 174.826,176.074 176.993,176.907 179.5,177C 183.833,177.333 188.167,177.667 192.5,178C 194.986,178.656 196.653,180.156 197.5,182.5 Z"/></g>
<g><path style="opacity:1" fill="#344959" d="M 394.5,173.5 C 398.136,181.075 400.803,189.075 402.5,197.5C 401.4,195.723 400.566,193.723 400,191.5C 399.362,192.609 398.862,193.775 398.5,195C 399.573,196.416 399.573,197.75 398.5,199C 399.167,199.333 399.833,199.667 400.5,200C 399.57,201.194 398.903,202.527 398.5,204C 399.167,208.667 399.833,213.333 400.5,218C 399.971,227.183 399.971,235.85 400.5,244C 398.955,245.688 397.955,247.688 397.5,250C 398.308,250.308 398.975,250.808 399.5,251.5C 397.146,255.786 396.479,260.286 397.5,265C 395.581,266.804 395.248,268.804 396.5,271C 395.998,274.197 394.998,277.197 393.5,280C 394.634,281.016 394.301,281.683 392.5,282C 393.576,283.726 393.743,285.559 393,287.5C 389.24,297.182 385.74,306.516 382.5,315.5C 382.812,318.503 384.145,319.17 386.5,317.5C 378.141,333.869 366.475,347.535 351.5,358.5C 351.062,358.565 350.728,358.399 350.5,358C 351.406,355.553 352.239,353.053 353,350.5C 353.667,349.167 354.333,349.167 355,350.5C 355.617,349.551 355.451,348.718 354.5,348C 357.367,346.529 358.367,344.362 357.5,341.5C 359.987,339.191 361.987,336.524 363.5,333.5C 362.975,332.808 362.308,332.308 361.5,332C 364.199,329.805 366.199,327.139 367.5,324C 367.043,323.586 366.709,323.086 366.5,322.5C 369.473,319.155 371.473,315.655 372.5,312C 372.888,310.475 372.888,308.808 372.5,307C 374.994,305.054 375.661,302.721 374.5,300C 375.966,298.448 376.966,296.614 377.5,294.5C 376.167,293.5 376.167,292.5 377.5,291.5C 376.833,291.167 376.167,290.833 375.5,290.5C 376.49,286.895 377.156,283.228 377.5,279.5C 378.293,275.12 379.293,270.787 380.5,266.5C 381.794,265.71 382.961,264.71 384,263.5C 386.203,258.073 388.036,252.573 389.5,247C 388.833,246.667 388.167,246.333 387.5,246C 388.872,243.467 389.872,240.8 390.5,238C 390.167,237.667 389.833,237.333 389.5,237C 390.442,231.849 391.109,226.849 391.5,222C 391.235,219.849 390.235,218.182 388.5,217C 389.795,214.199 389.795,211.366 388.5,208.5C 389.04,207.252 389.707,206.085 390.5,205C 389.833,204.667 389.167,204.333 388.5,204C 389.574,198.796 389.574,193.629 388.5,188.5C 389.167,184.167 389.833,179.833 390.5,175.5C 390.291,174.914 389.957,174.414 389.5,174C 391.139,172.481 392.806,172.314 394.5,173.5 Z"/></g>
<g><path style="opacity:1" fill="#465a6a" d="M 354.5,177.5 C 357.317,182.304 359.65,187.304 361.5,192.5C 360.213,191.232 359.213,191.565 358.5,193.5C 356.837,192.125 355.503,192.458 354.5,194.5C 351.604,194.293 348.604,194.127 345.5,194C 345,193.5 344.5,193 344,192.5C 331.727,192.197 319.56,192.197 307.5,192.5C 304.865,188.857 302.199,185.19 299.5,181.5C 299.953,180.542 300.619,179.708 301.5,179C 299.754,178.529 298.087,177.862 296.5,177C 298.022,175.672 299.689,175.838 301.5,177.5C 303.725,176.899 305.891,176.566 308,176.5C 309.067,177.191 310.234,177.691 311.5,178C 321.833,178.333 332.167,178.667 342.5,179C 346.952,181.368 350.952,180.868 354.5,177.5 Z"/></g>
<g><path style="opacity:1" fill="#687680" d="M 240.5,180.5 C 238.435,180.517 236.435,180.85 234.5,181.5C 234.611,180.883 234.944,180.383 235.5,180C 238.021,179.2 239.688,179.367 240.5,180.5 Z"/></g>
<g><path style="opacity:1" fill="#a6afba" d="M 258.5,179.5 C 261.152,179.41 263.485,180.076 265.5,181.5C 262.848,181.59 260.515,180.924 258.5,179.5 Z"/></g>
<g><path style="opacity:1" fill="#1e3248" d="M 258.5,179.5 C 260.515,180.924 262.848,181.59 265.5,181.5C 276.375,185.708 284.375,193.042 289.5,203.5C 288.312,204.048 287.145,204.381 286,204.5C 284.829,203.107 283.329,202.273 281.5,202C 282.956,201.577 283.456,200.744 283,199.5C 281.307,200.184 279.807,201.184 278.5,202.5C 278.167,201.833 277.833,201.167 277.5,200.5C 274.461,201.336 271.461,201.002 268.5,199.5C 267.5,200.167 266.5,200.833 265.5,201.5C 264.808,200.975 264.308,200.308 264,199.5C 263.667,199.833 263.333,200.167 263,200.5C 262.653,196.884 261.486,196.217 259.5,198.5C 258.575,197.359 257.741,197.359 257,198.5C 256.82,200.488 256.986,202.488 257.5,204.5C 252.101,196.714 247.434,188.381 243.5,179.5C 248.492,178.408 253.492,178.408 258.5,179.5 Z"/></g>
<g><path style="opacity:1" fill="#3b4e61" d="M 361.5,192.5 C 362.458,194.302 363.125,196.302 363.5,198.5C 362.732,199.263 362.232,200.263 362,201.5C 360.605,200.185 359.605,200.519 359,202.5C 357.956,201.377 357.29,200.044 357,198.5C 356.5,199 356,199.5 355.5,200C 348.316,200.297 341.15,200.797 334,201.5C 331.559,200.763 329.225,200.763 327,201.5C 326.072,199.665 324.906,199.332 323.5,200.5C 319.847,198.359 316.513,199.026 313.5,202.5C 311.998,198.626 311.331,198.959 311.5,203.5C 309.796,200.061 308.462,196.395 307.5,192.5C 319.56,192.197 331.727,192.197 344,192.5C 344.5,193 345,193.5 345.5,194C 348.604,194.127 351.604,194.293 354.5,194.5C 355.503,192.458 356.837,192.125 358.5,193.5C 359.213,191.565 360.213,191.232 361.5,192.5 Z"/></g>
<g><path style="opacity:1" fill="#2c4152" d="M 402.5,197.5 C 405.934,209.968 407.601,222.802 407.5,236C 407.529,247.6 406.529,259.1 404.5,270.5C 403.34,274.681 402.34,279.015 401.5,283.5C 400.129,285.936 399.129,288.603 398.5,291.5C 395.56,300.71 391.56,309.377 386.5,317.5C 384.145,319.17 382.812,318.503 382.5,315.5C 385.74,306.516 389.24,297.182 393,287.5C 393.743,285.559 393.576,283.726 392.5,282C 394.301,281.683 394.634,281.016 393.5,280C 394.998,277.197 395.998,274.197 396.5,271C 395.248,268.804 395.581,266.804 397.5,265C 396.479,260.286 397.146,255.786 399.5,251.5C 398.975,250.808 398.308,250.308 397.5,250C 397.955,247.688 398.955,245.688 400.5,244C 399.971,235.85 399.971,227.183 400.5,218C 399.833,213.333 399.167,208.667 398.5,204C 398.903,202.527 399.57,201.194 400.5,200C 399.833,199.667 399.167,199.333 398.5,199C 399.573,197.75 399.573,196.416 398.5,195C 398.862,193.775 399.362,192.609 400,191.5C 400.566,193.723 401.4,195.723 402.5,197.5 Z"/></g>
<g><path style="opacity:1" fill="#23374d" d="M 189.5,195.5 C 187.169,202.176 185.169,208.842 183.5,215.5C 183.66,213.801 183.494,212.134 183,210.5C 181.726,217.831 178.226,219.498 172.5,215.5C 171.833,216.167 171.167,216.833 170.5,217.5C 168.74,214.979 166.407,214.146 163.5,215C 165.645,215.743 165.811,216.576 164,217.5C 161.923,216.983 159.923,216.316 158,215.5C 155.816,216.108 153.816,215.441 152,213.5C 151.5,214.667 150.667,215.5 149.5,216C 150.056,216.383 150.389,216.883 150.5,217.5C 146.22,215.36 141.886,213.193 137.5,211C 135.365,210.124 134.031,208.624 133.5,206.5C 134.755,200.426 136.755,194.759 139.5,189.5C 141.799,190.528 144.299,190.528 147,189.5C 148.333,188.167 149.667,186.833 151,185.5C 152.427,187.787 154.261,188.12 156.5,186.5C 157.969,188.375 159.802,188.375 162,186.5C 164.74,187.282 167.574,187.782 170.5,188C 169.833,188.333 169.167,188.667 168.5,189C 170.167,189.333 171.833,189.667 173.5,190C 174.833,190.667 174.833,191.333 173.5,192C 176.393,192.453 179.393,192.453 182.5,192C 183.701,192.903 184.535,194.069 185,195.5C 185.483,194.552 185.649,193.552 185.5,192.5C 187.619,192.468 188.952,193.468 189.5,195.5 Z"/></g>
<g><path style="opacity:1" fill="#172a43" d="M 240.5,180.5 C 237.961,189.784 234.627,198.784 230.5,207.5C 228.554,209.353 227.054,211.686 226,214.5C 224.609,211.797 222.609,211.131 220,212.5C 217.294,211.11 214.461,209.944 211.5,209C 212.654,208.086 212.487,207.253 211,206.5C 209.413,206.342 207.913,207.009 206.5,208.5C 211.296,194.703 220.629,185.703 234.5,181.5C 236.435,180.85 238.435,180.517 240.5,180.5 Z"/></g>
<g><path style="opacity:1" fill="#152941" d="M 289.5,203.5 C 290.537,204.93 291.204,206.597 291.5,208.5C 290.268,211.184 290.268,214.017 291.5,217C 290.029,217.112 288.862,218.279 288,220.5C 288.295,216.639 286.795,215.306 283.5,216.5C 280.89,214.92 278.39,213.253 276,211.5C 275.626,212.416 275.126,213.25 274.5,214C 277.167,216.24 276.667,217.74 273,218.5C 271.846,217.257 270.512,216.257 269,215.5C 269.077,214.262 268.911,213.262 268.5,212.5C 267.268,213.145 265.935,213.311 264.5,213C 263.748,213.671 263.414,214.504 263.5,215.5C 261.262,212.028 259.262,208.362 257.5,204.5C 256.986,202.488 256.82,200.488 257,198.5C 257.741,197.359 258.575,197.359 259.5,198.5C 261.486,196.217 262.653,196.884 263,200.5C 263.333,200.167 263.667,199.833 264,199.5C 264.308,200.308 264.808,200.975 265.5,201.5C 266.5,200.833 267.5,200.167 268.5,199.5C 271.461,201.002 274.461,201.336 277.5,200.5C 277.833,201.167 278.167,201.833 278.5,202.5C 279.807,201.184 281.307,200.184 283,199.5C 283.456,200.744 282.956,201.577 281.5,202C 283.329,202.273 284.829,203.107 286,204.5C 287.145,204.381 288.312,204.048 289.5,203.5 Z"/></g>
<g><path style="opacity:1" fill="#2d4153" d="M 107.5,305.5 C 105.892,302.618 104.559,299.618 103.5,296.5C 102.538,292.605 101.204,288.939 99.5,285.5C 98.3286,280.012 96.9952,274.679 95.5,269.5C 93.0374,254.609 92.0374,239.609 92.5,224.5C 93.3091,222.708 93.8091,220.708 94,218.5C 94.3333,218.833 94.6667,219.167 95,219.5C 95.5833,215.168 96.0833,210.835 96.5,206.5C 97.5,206.5 98.5,206.5 99.5,206.5C 99.3433,205.127 99.51,203.793 100,202.5C 100.667,204.5 100.667,206.5 100,208.5C 99.1107,207.112 98.6107,207.278 98.5,209C 102.283,211.512 102.283,214.179 98.5,217C 100.768,220.071 101.101,223.404 99.5,227C 100.167,227.667 100.833,228.333 101.5,229C 102.244,231.483 102.244,234.149 101.5,237C 102.167,237.333 102.833,237.667 103.5,238C 102.572,238.388 101.905,239.055 101.5,240C 103.025,244.225 104.025,248.558 104.5,253C 102.536,255.518 101.87,258.184 102.5,261C 104.648,263.075 104.982,265.408 103.5,268C 104.357,268.689 105.023,269.522 105.5,270.5C 104.125,272.163 104.458,273.497 106.5,274.5C 104.724,275.315 104.057,276.482 104.5,278C 106.681,285.408 108.681,292.908 110.5,300.5C 110.333,301.833 110.167,303.167 110,304.5C 109.329,305.252 108.496,305.586 107.5,305.5 Z"/></g>
<g><path style="opacity:1" fill="#304458" d="M 363.5,198.5 C 364.892,201.007 365.892,203.673 366.5,206.5C 366.439,208.592 365.439,210.092 363.5,211C 355.964,213.926 349.297,218.093 343.5,223.5C 342.672,219.999 340.672,217.332 337.5,215.5C 336.808,216.025 336.308,216.692 336,217.5C 332.333,216.833 328.667,216.167 325,215.5C 322.626,217.94 320.459,217.606 318.5,214.5C 315.971,216.063 314.971,218.396 315.5,221.5C 315.806,224.385 315.473,227.052 314.5,229.5C 314.823,223.31 314.49,217.31 313.5,211.5C 313.59,208.848 312.924,206.515 311.5,204.5C 311.5,204.167 311.5,203.833 311.5,203.5C 311.331,198.959 311.998,198.626 313.5,202.5C 316.513,199.026 319.847,198.359 323.5,200.5C 324.906,199.332 326.072,199.665 327,201.5C 329.225,200.763 331.559,200.763 334,201.5C 341.15,200.797 348.316,200.297 355.5,200C 356,199.5 356.5,199 357,198.5C 357.29,200.044 357.956,201.377 359,202.5C 359.605,200.519 360.605,200.185 362,201.5C 362.232,200.263 362.732,199.263 363.5,198.5 Z"/></g>
<g><path style="opacity:1" fill="#8e9ba8" d="M 311.5,204.5 C 312.924,206.515 313.59,208.848 313.5,211.5C 312.076,209.485 311.41,207.152 311.5,204.5 Z"/></g>
<g><path style="opacity:1" fill="#11223b" d="M 230.5,207.5 C 225.057,222.452 218.891,237.119 212,251.5C 205.986,240.595 203.486,228.929 204.5,216.5C 205.924,214.485 206.59,212.152 206.5,209.5C 206.5,209.167 206.5,208.833 206.5,208.5C 207.913,207.009 209.413,206.342 211,206.5C 212.487,207.253 212.654,208.086 211.5,209C 214.461,209.944 217.294,211.11 220,212.5C 222.609,211.131 224.609,211.797 226,214.5C 227.054,211.686 228.554,209.353 230.5,207.5 Z"/></g>
<g><path style="opacity:1" fill="#1e3148" d="M 183.5,215.5 C 183.5,220.833 183.5,226.167 183.5,231.5C 182.674,226.684 182.174,221.684 182,216.5C 181.023,221.793 180.523,227.126 180.5,232.5C 176.366,232.506 172.533,232.839 169,233.5C 164.817,229.137 162.984,230.137 163.5,236.5C 161.401,228.635 157.068,222.302 150.5,217.5C 150.389,216.883 150.056,216.383 149.5,216C 150.667,215.5 151.5,214.667 152,213.5C 153.816,215.441 155.816,216.108 158,215.5C 159.923,216.316 161.923,216.983 164,217.5C 165.811,216.576 165.645,215.743 163.5,215C 166.407,214.146 168.74,214.979 170.5,217.5C 171.167,216.833 171.833,216.167 172.5,215.5C 178.226,219.498 181.726,217.831 183,210.5C 183.494,212.134 183.66,213.801 183.5,215.5 Z"/></g>
<g><path style="opacity:1" fill="#5d6876" d="M 206.5,209.5 C 206.59,212.152 205.924,214.485 204.5,216.5C 204.41,213.848 205.076,211.515 206.5,209.5 Z"/></g>
<g><path style="opacity:1" fill="#13243c" d="M 291.5,208.5 C 294.285,214.787 295.118,221.453 294,228.5C 292.347,237.968 288.847,246.634 283.5,254.5C 276.58,241.661 269.914,228.661 263.5,215.5C 263.414,214.504 263.748,213.671 264.5,213C 265.935,213.311 267.268,213.145 268.5,212.5C 268.911,213.262 269.077,214.262 269,215.5C 270.512,216.257 271.846,217.257 273,218.5C 276.667,217.74 277.167,216.24 274.5,214C 275.126,213.25 275.626,212.416 276,211.5C 278.39,213.253 280.89,214.92 283.5,216.5C 286.795,215.306 288.295,216.639 288,220.5C 288.862,218.279 290.029,217.112 291.5,217C 290.268,214.017 290.268,211.184 291.5,208.5 Z"/></g>
<g><path style="opacity:1" fill="#dae0e7" d="M 133.5,206.5 C 134.031,208.624 135.365,210.124 137.5,211C 141.886,213.193 146.22,215.36 150.5,217.5C 157.068,222.302 161.401,228.635 163.5,236.5C 165.261,243.784 167.595,250.784 170.5,257.5C 172.5,264.5 174.5,271.5 176.5,278.5C 176.677,282.708 178.01,286.374 180.5,289.5C 181.323,291.987 182.323,294.321 183.5,296.5C 184.579,301.073 186.246,305.407 188.5,309.5C 187.167,309.5 185.833,309.5 184.5,309.5C 183.617,307.09 182.45,304.757 181,302.5C 180.667,302.833 180.333,303.167 180,303.5C 179.749,301.567 179.249,299.734 178.5,298C 178.833,297.667 179.167,297.333 179.5,297C 177.578,295.54 176.911,293.873 177.5,292C 176.122,290.287 174.455,288.953 172.5,288C 173.167,286.667 174.167,285.667 175.5,285C 173.878,283.705 172.545,282.205 171.5,280.5C 171.786,277.928 171.786,275.428 171.5,273C 169.774,271.47 167.774,270.47 165.5,270C 166.5,269 167.5,268 168.5,267C 167.167,266.333 165.833,265.667 164.5,265C 165.051,263.602 165.384,262.268 165.5,261C 164.105,258.215 162.772,255.382 161.5,252.5C 162.383,250.52 162.217,248.52 161,246.5C 159.598,243.423 157.765,240.589 155.5,238C 155.761,235.927 155.761,233.927 155.5,232C 151.545,228.563 147.212,227.897 142.5,230C 143.056,230.383 143.389,230.883 143.5,231.5C 139.227,229.695 135.227,227.361 131.5,224.5C 130.504,230.463 130.171,236.463 130.5,242.5C 129.347,236.347 129.18,230.014 130,223.5C 130.605,217.573 131.771,211.906 133.5,206.5 Z"/></g>
<g><path style="opacity:1" fill="#16273e" d="M 263.5,244.5 C 261.551,243.275 260.218,243.942 259.5,246.5C 258.459,244.009 257.626,244.009 257,246.5C 253.507,245.668 249.84,245.668 246,246.5C 242.643,245.258 242.81,244.424 246.5,244C 244.246,242.85 241.913,242.516 239.5,243C 240.866,245.438 240.366,245.938 238,244.5C 235.63,247.182 233.63,246.848 232,243.5C 230.217,245.845 229.217,248.512 229,251.5C 228.23,250.402 227.397,250.402 226.5,251.5C 232.075,237.016 238.741,223.016 246.5,209.5C 248.718,210.924 250.218,212.924 251,215.5C 255.465,225.067 259.631,234.734 263.5,244.5 Z"/></g>
<g><path style="opacity:1" fill="#23384e" d="M 343.5,223.5 C 339.361,231.597 336.028,239.93 333.5,248.5C 333.665,245.15 333.498,241.817 333,238.5C 331.334,239.34 331.167,238.84 332.5,237C 331.377,235.956 330.044,235.29 328.5,235C 329.696,234.346 329.696,233.846 328.5,233.5C 325.5,236.167 322.5,236.167 319.5,233.5C 318.833,233.833 318.167,234.167 317.5,234.5C 316.833,230.018 316.166,225.684 315.5,221.5C 314.971,218.396 315.971,216.063 318.5,214.5C 320.459,217.606 322.626,217.94 325,215.5C 328.667,216.167 332.333,216.833 336,217.5C 336.308,216.692 336.808,216.025 337.5,215.5C 340.672,217.332 342.672,219.999 343.5,223.5 Z"/></g>
<g><path style="opacity:1" fill="#8e9aa3" d="M 369.5,237.5 C 368.799,258.269 363.799,277.935 354.5,296.5C 352.926,296.937 351.759,297.937 351,299.5C 349.16,298.167 348.66,298.334 349.5,300C 347.043,303.423 344.043,306.256 340.5,308.5C 338.825,312.888 335.825,314.555 331.5,313.5C 330.281,314.263 329.281,315.263 328.5,316.5C 328.167,316.167 327.833,315.833 327.5,315.5C 329.732,311.804 330.732,307.804 330.5,303.5C 339.413,280.348 347.746,257.015 355.5,233.5C 359.816,230.86 364.149,228.194 368.5,225.5C 369.491,229.445 369.824,233.445 369.5,237.5 Z"/></g>
<g><path style="opacity:1" fill="#162840" d="M 183.5,231.5 C 183.704,234.518 184.037,237.518 184.5,240.5C 184.41,243.152 185.076,245.485 186.5,247.5C 186.12,249.698 186.787,251.365 188.5,252.5C 188.957,255.406 189.957,258.072 191.5,260.5C 190.118,260.598 188.618,260.598 187,260.5C 186.626,259.584 186.126,258.75 185.5,258C 185.667,256.167 185.833,254.333 186,252.5C 185.333,253.167 184.667,253.833 184,254.5C 183.28,252.745 182.113,251.911 180.5,252C 178.709,254.216 177.043,256.382 175.5,258.5C 174.206,256.739 174.539,254.906 176.5,253C 175.207,252.51 173.873,252.343 172.5,252.5C 172.649,251.448 172.483,250.448 172,249.5C 171.178,252.117 170.678,254.784 170.5,257.5C 167.595,250.784 165.261,243.784 163.5,236.5C 162.984,230.137 164.817,229.137 169,233.5C 172.533,232.839 176.366,232.506 180.5,232.5C 180.523,227.126 181.023,221.793 182,216.5C 182.174,221.684 182.674,226.684 183.5,231.5 Z"/></g>
<g><path style="opacity:1" fill="#e2e8ee" d="M 366.5,206.5 C 369.807,216.657 370.807,226.99 369.5,237.5C 369.824,233.445 369.491,229.445 368.5,225.5C 364.149,228.194 359.816,230.86 355.5,233.5C 354.749,232.427 353.749,232.26 352.5,233C 349.262,236.64 346.262,239.807 343.5,242.5C 342.253,244.042 342.253,245.542 343.5,247C 338.015,258.427 333.515,270.26 330,282.5C 328.35,283.891 327.85,285.391 328.5,287C 325.108,289.575 323.608,293.075 324,297.5C 322.274,300.009 320.774,302.676 319.5,305.5C 317.448,306.734 315.781,308.4 314.5,310.5C 315.435,313.06 314.601,313.726 312,312.5C 310.686,313.313 309.519,314.313 308.5,315.5C 307.325,314.145 306.325,314.312 305.5,316C 305.833,316.333 306.167,316.667 306.5,317C 303.186,319.209 299.686,319.709 296,318.5C 291.784,319.442 287.617,320.442 283.5,321.5C 291.743,317.716 300.076,313.882 308.5,310C 309.381,309.292 310.047,308.458 310.5,307.5C 312.153,304.241 313.819,300.907 315.5,297.5C 317.834,295.824 318.834,293.491 318.5,290.5C 318.5,290.167 318.5,289.833 318.5,289.5C 320.834,287.824 321.834,285.491 321.5,282.5C 322.301,278.765 323.301,275.099 324.5,271.5C 328.067,264.145 331.067,256.478 333.5,248.5C 336.028,239.93 339.361,231.597 343.5,223.5C 349.297,218.093 355.964,213.926 363.5,211C 365.439,210.092 366.439,208.592 366.5,206.5 Z"/></g>
<g><path style="opacity:0.548" fill="#d0cfd3" d="M 88.5,212.5 C 87.1888,228.168 87.1888,243.835 88.5,259.5C 86.9778,252.061 86.3111,244.394 86.5,236.5C 86.3324,228.278 86.999,220.278 88.5,212.5 Z"/></g>
<g><path style="opacity:0.756" fill="#d1d3d8" d="M 412.5,218.5 C 415.138,233.882 414.805,249.216 411.5,264.5C 412.337,249.183 412.671,233.849 412.5,218.5 Z"/></g>
<g><path style="opacity:1" fill="#8d9aa3" d="M 143.5,231.5 C 145.344,233.195 146.677,235.195 147.5,237.5C 154.914,263.166 163.248,288.499 172.5,313.5C 172.657,314.873 172.49,316.207 172,317.5C 171.346,316.304 170.846,316.304 170.5,317.5C 171.04,318.748 171.707,319.915 172.5,321C 172.167,321.333 171.833,321.667 171.5,322C 173.521,322.401 174.855,323.568 175.5,325.5C 174.224,326.645 172.891,326.645 171.5,325.5C 171.167,326.167 170.833,326.833 170.5,327.5C 169.472,325.42 168.138,325.086 166.5,326.5C 151.652,310.49 141.152,291.824 135,270.5C 132.742,261.288 131.242,251.954 130.5,242.5C 130.171,236.463 130.504,230.463 131.5,224.5C 135.227,227.361 139.227,229.695 143.5,231.5 Z"/></g>
<g><path style="opacity:1" fill="#192c44" d="M 315.5,221.5 C 316.166,225.684 316.833,230.018 317.5,234.5C 318.167,234.167 318.833,233.833 319.5,233.5C 322.5,236.167 325.5,236.167 328.5,233.5C 329.696,233.846 329.696,234.346 328.5,235C 330.044,235.29 331.377,235.956 332.5,237C 331.167,238.84 331.334,239.34 333,238.5C 333.498,241.817 333.665,245.15 333.5,248.5C 331.067,256.478 328.067,264.145 324.5,271.5C 324.461,270.417 324.127,269.417 323.5,268.5C 325.104,266.821 325.771,264.821 325.5,262.5C 321.569,261.973 317.736,261.973 314,262.5C 312.022,260.602 310.355,261.268 309,264.5C 307.853,263.542 306.853,263.875 306,265.5C 305.659,268.187 304.326,270.187 302,271.5C 301.722,270.584 301.222,269.918 300.5,269.5C 308.523,257.434 313.19,244.101 314.5,229.5C 315.473,227.052 315.806,224.385 315.5,221.5 Z"/></g>
<g><path style="opacity:1" fill="#b7c0c8" d="M 95.5,269.5 C 96.9952,274.679 98.3286,280.012 99.5,285.5C 96.4516,280.693 95.1183,275.36 95.5,269.5 Z"/></g>
<g><path style="opacity:1" fill="#b9c0ca" d="M 404.5,270.5 C 405.035,275.312 404.035,279.645 401.5,283.5C 402.34,279.015 403.34,274.681 404.5,270.5 Z"/></g>
<g><path style="opacity:1" fill="#a8afb9" d="M 401.5,283.5 C 401.655,286.716 400.655,289.383 398.5,291.5C 399.129,288.603 400.129,285.936 401.5,283.5 Z"/></g>
<g><path style="opacity:1" fill="#9fa9b5" d="M 99.5,285.5 C 101.204,288.939 102.538,292.605 103.5,296.5C 101.01,293.374 99.677,289.708 99.5,285.5 Z"/></g>
<g><path style="opacity:1" fill="#f0f2f5" d="M 355.5,233.5 C 347.746,257.015 339.413,280.348 330.5,303.5C 328.313,311.358 323.98,317.858 317.5,323C 295.067,333.467 272.234,342.634 249,350.5C 225.133,342.82 201.966,333.32 179.5,322C 176.546,319.559 174.213,316.725 172.5,313.5C 163.248,288.499 154.914,263.166 147.5,237.5C 147.71,234.03 148.877,234.03 151,237.5C 151.317,235.699 151.984,235.366 153,236.5C 158.34,253.242 163.673,269.909 169,286.5C 172.314,295.03 176.148,303.364 180.5,311.5C 182.547,313.015 184.881,313.849 187.5,314C 187.043,314.414 186.709,314.914 186.5,315.5C 190.121,319.315 194.454,320.815 199.5,320C 200.293,321.085 200.96,322.252 201.5,323.5C 203.559,324.567 205.392,325.9 207,327.5C 208.716,327.589 210.549,327.256 212.5,326.5C 213.5,327.167 214.5,327.833 215.5,328.5C 217.541,327.952 219.874,327.785 222.5,328C 224.847,330.064 226.514,332.064 227.5,334C 229.433,334.251 231.266,334.751 233,335.5C 233.333,335.167 233.667,334.833 234,334.5C 237.116,337.457 240.616,339.79 244.5,341.5C 247.043,340.311 249.543,338.978 252,337.5C 253.154,338.743 254.488,339.743 256,340.5C 255.027,339.026 254.527,337.526 254.5,336C 256.769,335.242 258.936,335.409 261,336.5C 262.474,333.675 263.974,333.342 265.5,335.5C 266.521,334.998 266.688,334.332 266,333.5C 264.933,332.809 263.766,332.309 262.5,332C 263.756,331.583 264.423,330.75 264.5,329.5C 269.015,328.018 273.681,327.352 278.5,327.5C 278.281,326.325 278.614,325.325 279.5,324.5C 281.261,323.965 282.594,322.965 283.5,321.5C 287.617,320.442 291.784,319.442 296,318.5C 299.686,319.709 303.186,319.209 306.5,317C 306.167,316.667 305.833,316.333 305.5,316C 306.325,314.312 307.325,314.145 308.5,315.5C 309.519,314.313 310.686,313.313 312,312.5C 314.601,313.726 315.435,313.06 314.5,310.5C 315.781,308.4 317.448,306.734 319.5,305.5C 320.774,302.676 322.274,300.009 324,297.5C 323.608,293.075 325.108,289.575 328.5,287C 327.85,285.391 328.35,283.891 330,282.5C 333.515,270.26 338.015,258.427 343.5,247C 342.253,245.542 342.253,244.042 343.5,242.5C 346.262,239.807 349.262,236.64 352.5,233C 353.749,232.26 354.749,232.427 355.5,233.5 Z"/></g>
<g><path style="opacity:1" fill="#08182f" d="M 310.5,307.5 C 310.047,308.458 309.381,309.292 308.5,310C 300.076,313.882 291.743,317.716 283.5,321.5C 276.927,323.796 270.594,326.462 264.5,329.5C 259.789,330.459 255.456,332.292 251.5,335C 250.167,335.667 248.833,335.667 247.5,335C 227.564,327.03 207.898,318.53 188.5,309.5C 186.246,305.407 184.579,301.073 183.5,296.5C 184.968,295.221 185.635,293.554 185.5,291.5C 188.5,291.167 189.833,292.5 189.5,295.5C 195.674,294.745 202.174,294.745 209,295.5C 210.326,295.245 211.326,294.578 212,293.5C 214.166,295.121 216.666,295.955 219.5,296C 219.167,296.333 218.833,296.667 218.5,297C 224.11,297.421 229.444,298.088 234.5,299C 233.377,300.044 232.044,300.71 230.5,301C 229.304,301.654 229.304,302.154 230.5,302.5C 233.777,302.546 236.944,302.212 240,301.5C 241.333,302.167 242.667,302.833 244,303.5C 245,302.167 246,302.167 247,303.5C 249.005,301.2 251.172,301.2 253.5,303.5C 255.702,302.22 257.868,302.22 260,303.5C 263.032,302.908 265.698,301.574 268,299.5C 269,299.833 270,300.167 271,300.5C 272.099,297.961 273.766,297.295 276,298.5C 279.865,297.529 283.532,296.862 287,296.5C 287.945,296.905 288.612,297.572 289,298.5C 290.225,294.82 291.058,295.153 291.5,299.5C 288.15,299.335 284.817,299.502 281.5,300C 283.974,301.267 286.641,302.101 289.5,302.5C 295.073,302.444 300.74,302.277 306.5,302C 307.025,301.308 307.692,300.808 308.5,300.5C 308.594,302.239 308.761,304.239 309,306.5C 310.107,305.288 310.607,305.621 310.5,307.5 Z"/></g>
<g><path style="opacity:1" fill="#9ba8b5" d="M 318.5,290.5 C 318.834,293.491 317.834,295.824 315.5,297.5C 315.935,294.843 316.935,292.509 318.5,290.5 Z"/></g>
<g><path style="opacity:1" fill="#9fabb6" d="M 321.5,282.5 C 321.834,285.491 320.834,287.824 318.5,289.5C 318.935,286.843 319.935,284.509 321.5,282.5 Z"/></g>
<g><path style="opacity:1" fill="#8594a0" d="M 176.5,278.5 C 178.204,281.939 179.538,285.605 180.5,289.5C 178.01,286.374 176.677,282.708 176.5,278.5 Z"/></g>
<g><path style="opacity:1" fill="#0e1e36" d="M 191.5,260.5 C 198.976,272.808 208.976,282.642 221.5,290C 252.678,301.6 279.011,294.767 300.5,269.5C 301.222,269.918 301.722,270.584 302,271.5C 304.326,270.187 305.659,268.187 306,265.5C 306.853,263.875 307.853,263.542 309,264.5C 310.355,261.268 312.022,260.602 314,262.5C 317.736,261.973 321.569,261.973 325.5,262.5C 325.771,264.821 325.104,266.821 323.5,268.5C 324.127,269.417 324.461,270.417 324.5,271.5C 323.301,275.099 322.301,278.765 321.5,282.5C 319.935,284.509 318.935,286.843 318.5,289.5C 318.5,289.833 318.5,290.167 318.5,290.5C 316.935,292.509 315.935,294.843 315.5,297.5C 313.819,300.907 312.153,304.241 310.5,307.5C 310.607,305.621 310.107,305.288 309,306.5C 308.761,304.239 308.594,302.239 308.5,300.5C 307.692,300.808 307.025,301.308 306.5,302C 300.74,302.277 295.073,302.444 289.5,302.5C 286.641,302.101 283.974,301.267 281.5,300C 284.817,299.502 288.15,299.335 291.5,299.5C 291.058,295.153 290.225,294.82 289,298.5C 288.612,297.572 287.945,296.905 287,296.5C 283.532,296.862 279.865,297.529 276,298.5C 273.766,297.295 272.099,297.961 271,300.5C 270,300.167 269,299.833 268,299.5C 265.698,301.574 263.032,302.908 260,303.5C 257.868,302.22 255.702,302.22 253.5,303.5C 251.172,301.2 249.005,301.2 247,303.5C 246,302.167 245,302.167 244,303.5C 242.667,302.833 241.333,302.167 240,301.5C 236.944,302.212 233.777,302.546 230.5,302.5C 229.304,302.154 229.304,301.654 230.5,301C 232.044,300.71 233.377,300.044 234.5,299C 229.444,298.088 224.11,297.421 218.5,297C 218.833,296.667 219.167,296.333 219.5,296C 216.666,295.955 214.166,295.121 212,293.5C 211.326,294.578 210.326,295.245 209,295.5C 202.174,294.745 195.674,294.745 189.5,295.5C 189.833,292.5 188.5,291.167 185.5,291.5C 185.635,293.554 184.968,295.221 183.5,296.5C 182.323,294.321 181.323,291.987 180.5,289.5C 179.538,285.605 178.204,281.939 176.5,278.5C 174.5,271.5 172.5,264.5 170.5,257.5C 170.678,254.784 171.178,252.117 172,249.5C 172.483,250.448 172.649,251.448 172.5,252.5C 173.873,252.343 175.207,252.51 176.5,253C 174.539,254.906 174.206,256.739 175.5,258.5C 177.043,256.382 178.709,254.216 180.5,252C 182.113,251.911 183.28,252.745 184,254.5C 184.667,253.833 185.333,253.167 186,252.5C 185.833,254.333 185.667,256.167 185.5,258C 186.126,258.75 186.626,259.584 187,260.5C 188.618,260.598 190.118,260.598 191.5,260.5 Z"/></g>
<g><path style="opacity:1" fill="#566474" d="M 226.5,266.5 C 228.027,266.427 229.027,267.094 229.5,268.5C 227.973,268.573 226.973,267.906 226.5,266.5 Z"/></g>
<g><path style="opacity:1" fill="#394758" d="M 224.5,256.5 C 223.924,259.607 223.924,262.607 224.5,265.5C 223.188,264.855 222.188,263.855 221.5,262.5C 222.136,260.22 223.136,258.22 224.5,256.5 Z"/></g>
<g><path style="opacity:1" fill="#374356" d="M 263.5,244.5 C 265.204,247.256 266.537,250.256 267.5,253.5C 264.531,251.38 263.198,248.38 263.5,244.5 Z"/></g>
<g><path style="opacity:1" fill="#6e7c8b" d="M 186.5,247.5 C 187.537,248.93 188.204,250.597 188.5,252.5C 186.787,251.365 186.12,249.698 186.5,247.5 Z"/></g>
<g><path style="opacity:1" fill="#6f7a87" d="M 184.5,240.5 C 185.924,242.515 186.59,244.848 186.5,247.5C 185.076,245.485 184.41,243.152 184.5,240.5 Z"/></g>
<g><path style="opacity:1" fill="#0d1e36" d="M 263.5,244.5 C 263.198,248.38 264.531,251.38 267.5,253.5C 269.59,256.835 271.59,260.335 273.5,264C 271.812,266.019 269.812,267.686 267.5,269C 260.935,271.142 254.268,272.642 247.5,273.5C 240.95,273.422 234.95,271.756 229.5,268.5C 229.027,267.094 228.027,266.427 226.5,266.5C 225.508,266.672 224.842,266.338 224.5,265.5C 223.924,262.607 223.924,259.607 224.5,256.5C 225.024,254.694 225.691,253.028 226.5,251.5C 227.397,250.402 228.23,250.402 229,251.5C 229.217,248.512 230.217,245.845 232,243.5C 233.63,246.848 235.63,247.182 238,244.5C 240.366,245.938 240.866,245.438 239.5,243C 241.913,242.516 244.246,242.85 246.5,244C 242.81,244.424 242.643,245.258 246,246.5C 249.84,245.668 253.507,245.668 257,246.5C 257.626,244.009 258.459,244.009 259.5,246.5C 260.218,243.942 261.551,243.275 263.5,244.5 Z"/></g>
<g><path style="opacity:1" fill="#e6ebf1" d="M 188.5,309.5 C 207.898,318.53 227.564,327.03 247.5,335C 248.833,335.667 250.167,335.667 251.5,335C 255.456,332.292 259.789,330.459 264.5,329.5C 264.423,330.75 263.756,331.583 262.5,332C 263.766,332.309 264.933,332.809 266,333.5C 266.688,334.332 266.521,334.998 265.5,335.5C 263.974,333.342 262.474,333.675 261,336.5C 258.936,335.409 256.769,335.242 254.5,336C 254.527,337.526 255.027,339.026 256,340.5C 254.488,339.743 253.154,338.743 252,337.5C 249.543,338.978 247.043,340.311 244.5,341.5C 240.616,339.79 237.116,337.457 234,334.5C 233.667,334.833 233.333,335.167 233,335.5C 231.266,334.751 229.433,334.251 227.5,334C 226.514,332.064 224.847,330.064 222.5,328C 219.874,327.785 217.541,327.952 215.5,328.5C 214.5,327.833 213.5,327.167 212.5,326.5C 210.549,327.256 208.716,327.589 207,327.5C 205.392,325.9 203.559,324.567 201.5,323.5C 200.96,322.252 200.293,321.085 199.5,320C 194.454,320.815 190.121,319.315 186.5,315.5C 186.709,314.914 187.043,314.414 187.5,314C 184.881,313.849 182.547,313.015 180.5,311.5C 176.148,303.364 172.314,295.03 169,286.5C 163.673,269.909 158.34,253.242 153,236.5C 151.984,235.366 151.317,235.699 151,237.5C 148.877,234.03 147.71,234.03 147.5,237.5C 146.677,235.195 145.344,233.195 143.5,231.5C 143.389,230.883 143.056,230.383 142.5,230C 147.212,227.897 151.545,228.563 155.5,232C 155.761,233.927 155.761,235.927 155.5,238C 157.765,240.589 159.598,243.423 161,246.5C 162.217,248.52 162.383,250.52 161.5,252.5C 162.772,255.382 164.105,258.215 165.5,261C 165.384,262.268 165.051,263.602 164.5,265C 165.833,265.667 167.167,266.333 168.5,267C 167.5,268 166.5,269 165.5,270C 167.774,270.47 169.774,271.47 171.5,273C 171.786,275.428 171.786,277.928 171.5,280.5C 172.545,282.205 173.878,283.705 175.5,285C 174.167,285.667 173.167,286.667 172.5,288C 174.455,288.953 176.122,290.287 177.5,292C 176.911,293.873 177.578,295.54 179.5,297C 179.167,297.333 178.833,297.667 178.5,298C 179.249,299.734 179.749,301.567 180,303.5C 180.333,303.167 180.667,302.833 181,302.5C 182.45,304.757 183.617,307.09 184.5,309.5C 185.833,309.5 187.167,309.5 188.5,309.5 Z"/></g>
<g><path style="opacity:1" fill="#939ea7" d="M 354.5,296.5 C 346.268,312.568 334.935,326.068 320.5,337C 297.093,352.531 271.426,362.198 243.5,366C 229.972,361.714 216.639,357.047 203.5,352C 189.708,345.452 177.375,336.952 166.5,326.5C 168.138,325.086 169.472,325.42 170.5,327.5C 170.833,326.833 171.167,326.167 171.5,325.5C 172.891,326.645 174.224,326.645 175.5,325.5C 174.855,323.568 173.521,322.401 171.5,322C 171.833,321.667 172.167,321.333 172.5,321C 171.707,319.915 171.04,318.748 170.5,317.5C 170.846,316.304 171.346,316.304 172,317.5C 172.49,316.207 172.657,314.873 172.5,313.5C 174.213,316.725 176.546,319.559 179.5,322C 201.966,333.32 225.133,342.82 249,350.5C 272.234,342.634 295.067,333.467 317.5,323C 323.98,317.858 328.313,311.358 330.5,303.5C 330.732,307.804 329.732,311.804 327.5,315.5C 327.833,315.833 328.167,316.167 328.5,316.5C 329.281,315.263 330.281,314.263 331.5,313.5C 335.825,314.555 338.825,312.888 340.5,308.5C 344.043,306.256 347.043,303.423 349.5,300C 348.66,298.334 349.16,298.167 351,299.5C 351.759,297.937 352.926,296.937 354.5,296.5 Z"/></g>
<g><path style="opacity:1" fill="#3c5162" d="M 116.5,249.5 C 121.02,284.538 135.686,314.538 160.5,339.5C 160.53,340.497 160.03,341.164 159,341.5C 157.899,340.709 157.066,340.709 156.5,341.5C 157.5,342.333 158.5,343.167 159.5,344C 157.122,344.974 157.456,345.641 160.5,346C 159.743,347.512 158.743,348.846 157.5,350C 158.833,350 160.167,350 161.5,350C 160.167,351 160.167,352 161.5,353C 160.833,353.333 160.167,353.667 159.5,354C 161.664,354.914 163.664,356.081 165.5,357.5C 161.454,357.966 161.62,359.3 166,361.5C 167.651,363.402 167.984,365.402 167,367.5C 171.451,369.319 171.284,370.986 166.5,372.5C 157.934,368.05 150.268,362.384 143.5,355.5C 143.56,354.957 143.893,354.624 144.5,354.5C 146.073,356.836 147.406,356.836 148.5,354.5C 147.167,353.5 147.167,352.5 148.5,351.5C 147.726,350.289 146.893,350.289 146,351.5C 145.338,349.187 144.838,346.854 144.5,344.5C 141.402,344.587 141.068,344.087 143.5,343C 142.167,342 142.167,341 143.5,340C 141.006,338.054 140.339,335.721 141.5,333C 140.167,332.333 138.833,331.667 137.5,331C 137.833,330.667 138.167,330.333 138.5,330C 136.802,328.597 136.302,326.764 137,324.5C 136,324.5 135,324.5 134,324.5C 131.567,319.737 128.734,315.237 125.5,311C 125.833,310.667 126.167,310.333 126.5,310C 123.373,305.045 122.373,300.045 123.5,295C 123.167,294.5 122.833,294 122.5,293.5C 121.702,295.078 121.202,296.744 121,298.5C 120.79,295.766 119.956,293.266 118.5,291C 118.461,289.755 118.795,288.422 119.5,287C 118.148,285.036 117.314,282.869 117,280.5C 116.667,280.833 116.333,281.167 116,281.5C 115.8,277.247 115.3,273.08 114.5,269C 114.937,266.783 114.937,264.449 114.5,262C 115.448,261.517 116.448,261.351 117.5,261.5C 116.838,257.534 116.505,253.534 116.5,249.5 Z"/></g>
<g><path style="opacity:1" fill="#c7d3dd" d="M 283.5,321.5 C 282.594,322.965 281.261,323.965 279.5,324.5C 278.614,325.325 278.281,326.325 278.5,327.5C 273.681,327.352 269.015,328.018 264.5,329.5C 270.594,326.462 276.927,323.796 283.5,321.5 Z"/></g>
<g><path style="opacity:1" fill="#3f5464" d="M 377.5,279.5 C 377.156,283.228 376.49,286.895 375.5,290.5C 376.167,290.833 376.833,291.167 377.5,291.5C 376.167,292.5 376.167,293.5 377.5,294.5C 376.966,296.614 375.966,298.448 374.5,300C 375.661,302.721 374.994,305.054 372.5,307C 372.888,308.808 372.888,310.475 372.5,312C 371.473,315.655 369.473,319.155 366.5,322.5C 366.709,323.086 367.043,323.586 367.5,324C 366.199,327.139 364.199,329.805 361.5,332C 362.308,332.308 362.975,332.808 363.5,333.5C 361.987,336.524 359.987,339.191 357.5,341.5C 358.367,344.362 357.367,346.529 354.5,348C 355.451,348.718 355.617,349.551 355,350.5C 354.333,349.167 353.667,349.167 353,350.5C 352.239,353.053 351.406,355.553 350.5,358C 350.728,358.399 351.062,358.565 351.5,358.5C 340.864,368.16 328.864,375.827 315.5,381.5C 314.448,381.649 313.448,381.483 312.5,381C 313.634,379.984 313.301,379.317 311.5,379C 312.784,378.316 313.951,378.483 315,379.5C 315.787,378.289 316.454,377.289 317,376.5C 317.873,376.735 318.707,377.069 319.5,377.5C 322.904,371.853 326.904,366.686 331.5,362C 330.549,361.282 330.383,360.449 331,359.5C 332,359.5 333,359.5 334,359.5C 334.456,358.256 333.956,357.423 332.5,357C 335.919,354.863 338.419,351.363 340,346.5C 340.914,347.654 341.747,347.487 342.5,346C 341.044,345.577 340.544,344.744 341,343.5C 341.333,343.833 341.667,344.167 342,344.5C 342.333,343.5 342.667,342.5 343,341.5C 343.654,342.696 344.154,342.696 344.5,341.5C 343.652,339.591 343.318,337.591 343.5,335.5C 358.937,319.286 370.271,300.62 377.5,279.5 Z"/></g>
<g><path style="opacity:1" fill="#475b6b" d="M 343.5,335.5 C 343.318,337.591 343.652,339.591 344.5,341.5C 344.154,342.696 343.654,342.696 343,341.5C 342.667,342.5 342.333,343.5 342,344.5C 341.667,344.167 341.333,343.833 341,343.5C 340.544,344.744 341.044,345.577 342.5,346C 341.747,347.487 340.914,347.654 340,346.5C 338.419,351.363 335.919,354.863 332.5,357C 333.956,357.423 334.456,358.256 334,359.5C 333,359.5 332,359.5 331,359.5C 330.383,360.449 330.549,361.282 331.5,362C 326.904,366.686 322.904,371.853 319.5,377.5C 318.707,377.069 317.873,376.735 317,376.5C 316.454,377.289 315.787,378.289 315,379.5C 313.951,378.483 312.784,378.316 311.5,379C 313.301,379.317 313.634,379.984 312.5,381C 313.448,381.483 314.448,381.649 315.5,381.5C 307.246,386.124 298.579,389.957 289.5,393C 275.737,396.427 262.07,399.927 248.5,403.5C 223.512,398.226 199.512,390.06 176.5,379C 172.931,377.058 169.598,374.892 166.5,372.5C 171.284,370.986 171.451,369.319 167,367.5C 167.984,365.402 167.651,363.402 166,361.5C 161.62,359.3 161.454,357.966 165.5,357.5C 163.664,356.081 161.664,354.914 159.5,354C 160.167,353.667 160.833,353.333 161.5,353C 160.167,352 160.167,351 161.5,350C 160.167,350 158.833,350 157.5,350C 158.743,348.846 159.743,347.512 160.5,346C 157.456,345.641 157.122,344.974 159.5,344C 158.5,343.167 157.5,342.333 156.5,341.5C 157.066,340.709 157.899,340.709 159,341.5C 160.03,341.164 160.53,340.497 160.5,339.5C 171.744,349.282 184.077,357.282 197.5,363.5C 198.105,365.026 199.271,366.026 201,366.5C 201.617,367.449 201.451,368.282 200.5,369C 202.591,370.726 204.924,371.893 207.5,372.5C 207.413,375.598 207.913,375.932 209,373.5C 217.134,377.708 225.467,381.374 234,384.5C 236.906,383.588 239.573,384.254 242,386.5C 250.523,386.788 258.856,386.788 267,386.5C 268.832,385.142 270.665,384.808 272.5,385.5C 273.799,384.91 274.632,383.91 275,382.5C 276.587,383.727 277.921,383.394 279,381.5C 280.779,384.276 281.779,383.943 282,380.5C 282.333,380.833 282.667,381.167 283,381.5C 286.18,379.785 289.18,377.785 292,375.5C 292.333,375.833 292.667,376.167 293,376.5C 295.888,373.387 299.721,370.721 304.5,368.5C 305.711,367.726 305.711,366.893 304.5,366C 306.447,366.536 308.447,366.202 310.5,365C 310.167,364.667 309.833,364.333 309.5,364C 311.661,362.364 312.994,360.197 313.5,357.5C 324.172,351.156 334.172,343.822 343.5,335.5 Z"/></g>
<g><path style="opacity:1" fill="#506474" d="M 313.5,357.5 C 312.994,360.197 311.661,362.364 309.5,364C 309.833,364.333 310.167,364.667 310.5,365C 308.447,366.202 306.447,366.536 304.5,366C 305.711,366.893 305.711,367.726 304.5,368.5C 299.721,370.721 295.888,373.387 293,376.5C 292.667,376.167 292.333,375.833 292,375.5C 289.18,377.785 286.18,379.785 283,381.5C 282.667,381.167 282.333,380.833 282,380.5C 281.779,383.943 280.779,384.276 279,381.5C 277.921,383.394 276.587,383.727 275,382.5C 274.632,383.91 273.799,384.91 272.5,385.5C 270.665,384.808 268.832,385.142 267,386.5C 258.856,386.788 250.523,386.788 242,386.5C 239.573,384.254 236.906,383.588 234,384.5C 225.467,381.374 217.134,377.708 209,373.5C 207.913,375.932 207.413,375.598 207.5,372.5C 204.924,371.893 202.591,370.726 200.5,369C 201.451,368.282 201.617,367.449 201,366.5C 199.271,366.026 198.105,365.026 197.5,363.5C 207.618,367.762 217.951,371.428 228.5,374.5C 233.5,376.943 238.834,378.61 244.5,379.5C 245.496,380.665 246.829,381.332 248.5,381.5C 270.718,375.093 292.385,367.093 313.5,357.5 Z"/></g>
<g><path style="opacity:1" fill="#c3cdd4" d="M 228.5,374.5 C 234.166,375.39 239.5,377.057 244.5,379.5C 238.834,378.61 233.5,376.943 228.5,374.5 Z"/></g>
</svg>
